<svg width="32" height="32" viewBox="0 0 32 32" fill="none" xmlns="http://www.w3.org/2000/svg">
    <rect width="32" height="32" rx="4" fill="#FFC01F"/>
    <g id="E-Learning-Book-Smartphone--Streamline-Streamline--3.0.svg" clip-path="url(#clip0_90_2199)">
        <path id="Vector" d="M20.2188 17.8563C20.2188 17.8563 20.7934 16.075 25.7162 15.8875C25.8164 15.878 25.9174 15.8884 26.0135 15.9181C26.1095 15.9479 26.1988 15.9963 26.276 16.0608C26.3532 16.1252 26.4169 16.2043 26.4634 16.2934C26.5099 16.3826 26.5383 16.4801 26.5469 16.5803V23.8928C26.5285 24.0868 26.4362 24.2662 26.289 24.3938C26.1418 24.5214 25.9511 24.5875 25.7566 24.5781C20.8019 24.7535 20.2188 26.5469 20.2188 26.5469M20.2188 17.8563V26.5469M20.2188 17.8563C20.2188 17.8563 19.6441 16.075 14.7212 15.8875C14.6211 15.878 14.5201 15.8884 14.424 15.9181C14.328 15.9479 14.2387 15.9963 14.1615 16.0608C14.0843 16.1252 14.0206 16.2043 13.9741 16.2934C13.9276 16.3826 13.8992 16.4801 13.8906 16.5803V23.8928C13.909 24.0868 14.0013 24.2662 14.1485 24.3938C14.2957 24.5214 14.4864 24.5875 14.6809 24.5781C19.6356 24.7535 20.2188 26.5469 20.2188 26.5469" stroke="white" stroke-linecap="round" stroke-linejoin="round"/>
        <path id="Vector_2" d="M11.0781 25.1415H8.01531C7.67889 25.1417 7.34573 25.0755 7.03488 24.9468C6.72402 24.8182 6.44156 24.6295 6.20363 24.3917C5.9657 24.1539 5.77695 23.8715 5.64818 23.5607C5.5194 23.2498 5.45312 22.9167 5.45313 22.5803V8.01623C5.45313 7.33669 5.72307 6.68499 6.20357 6.20449C6.68408 5.72398 7.33578 5.45404 8.01531 5.45404H13.8906C14.6365 5.45404 15.3519 5.75036 15.8794 6.2778C16.4068 6.80525 16.7031 7.52062 16.7031 8.26654V13.1875" stroke="white" stroke-linecap="round" stroke-linejoin="round"/>
        <path id="Vector_3" d="M5.45312 20.9228H11.0781" stroke="white" stroke-linecap="round" stroke-linejoin="round"/>
    </g>
    <defs>
        <clipPath id="clip0_90_2199">
            <rect width="24" height="24" fill="white" transform="translate(4 4)"/>
        </clipPath>
    </defs>
</svg>
