<svg width="32" height="32" viewBox="0 0 32 32" fill="none" xmlns="http://www.w3.org/2000/svg">
    <rect width="32" height="32" rx="8" fill="#FFC01F"/>
    <path id="Vector" d="M16 6.86029V5.45404" stroke="white" stroke-linecap="round" stroke-linejoin="round"/>
    <path id="Vector_2" d="M21.9648 9.33252L22.9595 8.33783" stroke="white" stroke-linecap="round" stroke-linejoin="round"/>
    <path id="Vector_3" d="M24.4375 15.2978H25.8438" stroke="white" stroke-linecap="round" stroke-linejoin="round"/>
    <path id="Vector_4" d="M21.9648 21.264L22.9595 22.2587" stroke="white" stroke-linecap="round" stroke-linejoin="round"/>
    <path id="Vector_5" d="M10.0338 9.33252L9.03906 8.33783" stroke="white" stroke-linecap="round" stroke-linejoin="round"/>
    <path id="Vector_6" d="M7.5625 15.2978H6.15625" stroke="white" stroke-linecap="round" stroke-linejoin="round"/>
    <path id="Vector_7" d="M10.0338 21.264L9.03906 22.2587" stroke="white" stroke-linecap="round" stroke-linejoin="round"/>
    <path id="Vector_8" d="M13.1875 20.171V22.3272C13.1875 23.0731 13.4838 23.7885 14.0113 24.3159C14.5387 24.8434 15.2541 25.1397 16 25.1397C16.7459 25.1397 17.4613 24.8434 17.9887 24.3159C18.5162 23.7885 18.8125 23.0731 18.8125 22.3272V20.171" stroke="white" stroke-linecap="round" stroke-linejoin="round"/>
    <path id="Vector_9" d="M10.375 15.2978C10.375 16.7896 10.9676 18.2204 12.0225 19.2753C13.0774 20.3302 14.5082 20.9228 16 20.9228C17.4918 20.9228 18.9226 20.3302 19.9775 19.2753C21.0324 18.2204 21.625 16.7896 21.625 15.2978C21.625 13.8059 21.0324 12.3752 19.9775 11.3203C18.9226 10.2654 17.4918 9.67279 16 9.67279C14.5082 9.67279 13.0774 10.2654 12.0225 11.3203C10.9676 12.3752 10.375 13.8059 10.375 15.2978Z" stroke="white" stroke-linecap="round" stroke-linejoin="round"/>
    <path id="Vector_10" d="M16 25.1415V26.5478" stroke="white" stroke-linecap="round" stroke-linejoin="round"/>
</svg>
