<svg width="115" height="60" viewBox="0 0 115 60" fill="none" xmlns="http://www.w3.org/2000/svg">
<g clip-path="url(#clip0_239_1426)">
<mask id="mask0_239_1426" style="mask-type:luminance" maskUnits="userSpaceOnUse" x="0" y="0" width="115" height="60">
<path d="M115 0H0V60H115V0Z" fill="white"/>
</mask>
<g mask="url(#mask0_239_1426)">
<path fill-rule="evenodd" clip-rule="evenodd" d="M63.5805 24.1487L62.5535 28.8487H64.6323C65.8173 28.8487 66.5925 28.7958 66.9578 28.6903C68.0095 28.3878 68.6563 27.6628 68.8983 26.5107C68.9527 26.261 68.9822 26.0402 68.9822 25.8482C68.9822 25.104 68.6118 24.6095 67.8713 24.3598C67.4268 24.2207 66.6863 24.1487 65.6543 24.1487H63.5805ZM81.7902 32.4447H87.2215L86.4167 24.4367H86.3327L81.7902 32.4447ZM42.7788 31.686L41.7813 36.2613H44.8575C46.7633 36.2613 47.8792 35.5123 48.21 34.0145C48.2643 33.784 48.294 33.568 48.294 33.3712C48.294 32.2478 47.425 31.686 45.687 31.686H42.7788ZM44.4673 23.9807L43.5243 28.263H46.1313C47.109 28.263 47.7755 28.1813 48.1262 28.023C48.9013 27.6485 49.3802 27.0243 49.5678 26.1507C49.7357 25.4017 49.6025 24.8303 49.1778 24.4367C48.847 24.1342 48.2842 23.9807 47.4892 23.9807H44.4673ZM35.5997 39.79L39.8212 20.5575H50.6492C50.9948 20.5863 51.291 20.62 51.538 20.6583C52.8118 20.8888 53.7845 21.3545 54.4462 22.0507C55.0535 22.694 55.3595 23.4668 55.3595 24.379C55.3595 24.7007 55.3202 25.032 55.251 25.368C54.7523 27.5957 53.0043 29.06 50.0122 29.7562L49.9827 29.8088C52.5897 30.2747 53.8932 31.47 53.8932 33.3952C53.8932 34.6098 53.5425 35.7092 52.8415 36.6982C52.1403 37.6872 51.2022 38.4505 50.027 38.9883C48.8518 39.5212 46.9905 39.79 44.4427 39.79H35.5997ZM0.192563 33.544H5.67817C5.6041 33.8848 5.56953 34.1633 5.56953 34.3842C5.56953 35.7237 6.49778 36.391 8.3543 36.391C10.2997 36.391 11.4402 35.6948 11.7661 34.3073C11.8007 34.1393 11.8204 33.9762 11.8204 33.8273C11.8204 33.1983 11.3662 32.7663 10.4527 32.531L5.89542 31.3643C3.30815 30.7018 2.01945 29.4248 2.01945 27.5285C2.01945 27.154 2.06388 26.7555 2.1577 26.333C2.53788 24.7055 3.49577 23.3757 5.0264 22.3435C6.75453 21.1768 9.00605 20.5912 11.7711 20.5912C16.3975 20.5912 18.7083 21.9787 18.7083 24.7583C18.7083 25.2145 18.6342 25.7762 18.491 26.4338H12.9413C13.0301 26.093 13.0795 25.8097 13.0795 25.5697C13.0795 24.451 12.3685 23.8942 10.9514 23.8942C10.1664 23.8942 9.49487 24.0767 8.93198 24.4415C8.36912 24.8063 8.03337 25.2672 7.9198 25.8242C7.88523 25.9778 7.86548 26.1218 7.86548 26.2562C7.86548 26.9523 8.40368 27.4325 9.47512 27.7062L12.9413 28.5943C14.4521 28.9832 15.5088 29.372 16.1062 29.7608C17.1283 30.4042 17.6368 31.3357 17.6368 32.555C17.6368 32.9632 17.5825 33.4 17.474 33.8753C17.0345 35.8388 15.8643 37.3367 13.9535 38.3737C12.2056 39.3243 10.0331 39.7948 7.42605 39.7948C4.05865 39.7948 1.83677 39.065 0.765317 37.6103C0.256752 36.9287 0 36.0982 0 35.1187C0 34.7107 0.0641878 34.1873 0.192563 33.544ZM18.2097 39.79L22.451 20.62H37.4758L36.671 24.2927H27.1367L26.2478 28.287H35.2293L34.3998 31.9597H25.4183L24.5297 36.0597H34.2862L33.4567 39.7852H18.2097V39.79ZM95.7338 39.79L99.9752 20.62H115L114.195 24.2927H104.661L103.772 28.287H112.753L111.924 31.9597H102.942L102.054 36.0597H111.81L110.981 39.7852H95.7338V39.79ZM42.8578 6.53405H79.1882L80.541 0H44.2057L42.8578 6.53405ZM40.6358 16.6783H76.9662L78.3192 10.1443H41.9888L40.6358 16.6783ZM33.3678 50.2943H69.6982L71.051 43.7603H34.7207L33.3678 50.2943ZM31.146 60.4388H67.4763L68.8292 53.9047H32.4988L31.146 60.4388ZM71.9497 39.79L84.0862 20.7112H90.8505L94.5093 39.7948H88.2435L87.7152 35.9637H79.7065L77.4897 39.7948L71.9497 39.79H65.9358C65.8963 39.0795 66 37.6392 66.2418 35.4595C66.316 34.6962 66.3555 34.1777 66.3555 33.8945C66.3555 33.3088 66.2023 32.8958 65.8963 32.6607C65.5902 32.4207 64.9977 32.3005 64.1088 32.3005H61.7783L60.1145 39.79H54.5448L58.7862 20.6152H68.0442C69.634 20.6152 70.6857 20.6487 71.2042 20.7208C72.4582 20.8983 73.3568 21.3208 73.895 21.9978C74.3938 22.598 74.6455 23.3517 74.6455 24.2542C74.6455 24.7152 74.5913 25.2 74.4777 25.7137C74.1073 27.3605 73.2285 28.5463 71.846 29.2712C70.9423 29.7465 69.8512 30.0777 68.5773 30.2553L68.5477 30.361C69.9895 30.3947 70.9672 30.673 71.4855 31.182C71.93 31.6092 72.1522 32.3245 72.1522 33.3328C72.1522 33.6688 72.1225 34.245 72.0682 35.0612C71.8953 37.4328 71.8608 39.0075 71.9497 39.79Z" fill="#0060B1"/>
</g>
</g>
<defs>
<clipPath id="clip0_239_1426">
<rect width="115" height="60" fill="white"/>
</clipPath>
</defs>
</svg>
