<svg viewBox="0 0 100 100" xmlns="http://www.w3.org/2000/svg" id="Protected-Pc--Streamline-Ux" height="100" width="100">
    <desc>Protected Pc Streamline Illustration: https://streamlinehq.com</desc>
    <path d="M10 57.832a40 40 0 1 0 80 0 40 40 0 1 0 -80 0Z" fill="#d9edff" stroke-width="1"></path>
    <path d="M13.797 57.394a19.742 2.926 0 1 0 39.484 0 19.742 2.926 0 1 0 -39.484 0Z" fill="#b0d9ff" stroke-width="1"></path>
    <path d="M48.484 55.659a3.547 3.547 0 0 0 3.552 -3.552c0 -6.309 -6.421 -10.827 -10.811 -13.5 2.542 -7.2 2.259 -6.905 2.259 -12.7a9.946 9.946 0 1 0 -19.891 0c0 5.8 -0.283 5.5 2.259 12.7 -4.39 2.671 -10.811 7.189 -10.811 13.5a3.548 3.548 0 0 0 3.552 3.552Z" fill="#ffffff" stroke-width="1"></path>
    <path d="M27.145 30.725v-1.266a6.394 6.394 0 1 1 12.787 0v1.266a20.875 20.875 0 0 1 -0.822 5.753H27.967a20.875 20.875 0 0 1 -0.822 -5.753Z" fill="#b0d9ff" stroke="#020064" stroke-linecap="round" stroke-linejoin="round" stroke-width="1"></path>
    <path d="M48.484 55.659a3.547 3.547 0 0 0 3.552 -3.552c0 -6.309 -6.421 -10.827 -10.811 -13.5 2.542 -7.2 2.259 -6.905 2.259 -12.7a9.946 9.946 0 1 0 -19.891 0c0 5.8 -0.283 5.5 2.259 12.7 -4.39 2.671 -10.811 7.189 -10.811 13.5a3.548 3.548 0 0 0 3.552 3.552Z" fill="none" stroke="#020064" stroke-linecap="round" stroke-linejoin="round" stroke-width="1"></path>
    <path d="M33.754 8.454c-0.83 0 -1.923 -2.744 -1.923 -4.363a1.923 1.923 0 0 1 3.846 0c0 1.619 -1.093 4.363 -1.923 4.363Z" fill="#b0d9ff" stroke="#020064" stroke-linecap="round" stroke-linejoin="round" stroke-width="1"></path>
    <path d="M23.952 11.191c-0.992 0 -2.96 -1.535 -3.7 -2.681a1.923 1.923 0 0 1 3.225 -2.095c0.882 1.357 1.46 4.255 0.764 4.707a0.525 0.525 0 0 1 -0.289 0.069Z" fill="#b0d9ff" stroke="#020064" stroke-linecap="round" stroke-linejoin="round" stroke-width="1"></path>
    <path d="M15.886 19.064a8.063 8.063 0 0 1 -2.947 -0.539 1.923 1.923 0 0 1 1.561 -3.514 7.912 7.912 0 0 1 2.29 1.738c0.714 0.768 1.064 1.455 0.913 1.793 -0.139 0.322 -0.836 0.522 -1.817 0.522Z" fill="#b0d9ff" stroke="#020064" stroke-linecap="round" stroke-linejoin="round" stroke-width="1"></path>
    <path d="M11.963 30.928a1.923 1.923 0 0 1 -0.3 -3.823 4.9 4.9 0 0 1 0.771 -0.054c1.638 0 3.731 0.587 3.839 1.271 0.13 0.82 -2.409 2.328 -4.008 2.582a1.94 1.94 0 0 1 -0.302 0.024Z" fill="#b0d9ff" stroke="#020064" stroke-linecap="round" stroke-linejoin="round" stroke-width="1"></path>
    <path d="M55.116 30.306a1.988 1.988 0 0 1 -0.2 -0.011 7.927 7.927 0 0 1 -2.716 -0.946c-0.916 -0.509 -1.461 -1.054 -1.422 -1.423 0.078 -0.747 2.408 -1.477 4.089 -1.477a4.255 4.255 0 0 1 0.451 0.021 1.923 1.923 0 0 1 -0.2 3.836Z" fill="#b0d9ff" stroke="#020064" stroke-linecap="round" stroke-linejoin="round" stroke-width="1"></path>
    <path d="M50.612 18.618c-0.8 0 -1.356 -0.163 -1.5 -0.436 -0.377 -0.739 1.572 -2.959 3.014 -3.694a1.923 1.923 0 0 1 1.747 3.427 8.166 8.166 0 0 1 -3.261 0.703Z" fill="#b0d9ff" stroke="#020064" stroke-linecap="round" stroke-linejoin="round" stroke-width="1"></path>
    <path d="M42.664 10.969a0.484 0.484 0 0 1 -0.244 -0.056c-0.321 -0.185 -0.442 -0.946 -0.316 -1.987a7.933 7.933 0 0 1 0.831 -2.753 1.932 1.932 0 0 1 1.665 -0.961A1.924 1.924 0 0 1 46.266 8.1c-0.693 1.2 -2.637 2.869 -3.602 2.869Z" fill="#b0d9ff" stroke="#020064" stroke-linecap="round" stroke-linejoin="round" stroke-width="1"></path>
    <path d="M17.224 54.607a3.885 3.885 0 0 0 3.884 3.885h24.861a3.885 3.885 0 0 0 3.884 -3.885Z" fill="#ffffff" stroke="#020064" stroke-linecap="round" stroke-linejoin="round" stroke-width="1"></path>
    <path d="M49.853 37.876a1.553 1.553 0 0 0 -1.553 -1.553H18.778a1.553 1.553 0 0 0 -1.554 1.553v16.731h32.629Z" fill="#b0d9ff" stroke-width="1"></path>
    <path d="M49.853 37.876a1.553 1.553 0 0 0 -1.553 -1.553H18.778a1.553 1.553 0 0 0 -1.554 1.553v16.731h32.629Z" fill="none" stroke="#020064" stroke-linecap="round" stroke-linejoin="round" stroke-width="1"></path>
    <path d="M44.408 94.077a12.462 1.758 0 1 0 24.924 0 12.462 1.758 0 1 0 -24.924 0Z" fill="#b0d9ff" stroke-width="1"></path>
    <path d="M82.342 49.963a4.143 4.143 0 0 0 -4.142 -4.142H35.54a4.143 4.143 0 0 0 -4.14 4.142V78.24h50.942Z" fill="#b0d9ff" stroke-width="1"></path>
    <path d="m63.045 90.59 -12.35 0 0.772 -6.175 10.806 0 0.772 6.175z" fill="#ffffff" stroke-width="1"></path>
    <path d="m63.045 90.59 -12.35 0 0.772 -6.175 10.806 0 0.772 6.175z" fill="none" stroke="#020064" stroke-linecap="round" stroke-linejoin="round" stroke-width="1"></path>
    <path d="M65.712 93.677H48.028a0.955 0.955 0 0 1 -0.889 -1.335 3.086 3.086 0 0 1 2.784 -1.752h13.894a3.086 3.086 0 0 1 2.783 1.752 0.955 0.955 0 0 1 -0.888 1.335Z" fill="#ffffff" stroke="#020064" stroke-linecap="round" stroke-linejoin="round" stroke-width="1"></path>
    <path d="M78.2 84.415a4.143 4.143 0 0 0 4.142 -4.142V78.24H31.4v2.033a4.143 4.143 0 0 0 4.142 4.142Z" fill="#ffffff" stroke="#020064" stroke-linecap="round" stroke-linejoin="round" stroke-width="1"></path>
    <path d="M82.342 49.963a4.143 4.143 0 0 0 -4.142 -4.142H35.54a4.143 4.143 0 0 0 -4.14 4.142V78.24h50.942Z" fill="none" stroke="#020064" stroke-linecap="round" stroke-linejoin="round" stroke-width="1"></path>
    <path d="M55.867 81.327a1.003 1.003 0 1 0 2.006 0 1.003 1.003 0 1 0 -2.006 0Z" fill="#020064" stroke-width="1"></path>
    <path d="M46.484 54.087v7.554a12.178 12.178 0 0 0 8.13 11.344l1.109 0.409a3.327 3.327 0 0 0 2.294 0l1.109 -0.409a12.178 12.178 0 0 0 8.13 -11.344v-7.554a1.516 1.516 0 0 0 -0.924 -1.391 25.147 25.147 0 0 0 -18.924 0 1.516 1.516 0 0 0 -0.924 1.391Z" fill="#ffffff" stroke="#020064" stroke-linecap="round" stroke-linejoin="round" stroke-width="1"></path>
    <path d="m54.755 62.64 -2.191 -2.191a0.887 0.887 0 0 0 -1.252 0l-0.939 0.939a0.887 0.887 0 0 0 0 1.252l4.069 4.069a0.885 0.885 0 0 0 1.252 0l7.674 -7.673a0.887 0.887 0 0 0 0 -1.252l-0.939 -0.939a0.885 0.885 0 0 0 -1.252 0l-5.8 5.8a0.442 0.442 0 0 1 -0.622 -0.005Z" fill="#b0d9ff" stroke="#020064" stroke-linecap="round" stroke-linejoin="round" stroke-width="1"></path>
</svg>