<svg viewBox="0 0 200 200" xmlns="http://www.w3.org/2000/svg" id="Padlock-Shield--Streamline-Ux" height="200" width="200"><desc>Padlock Shield Streamline Illustration: https://streamlinehq.com</desc><path d="M20 100a80 80 0 1 0 160 0 80 80 0 1 0 -160 0Z" fill="#d9edff" stroke-width="1"></path><path d="m100 33.558 45.12 15.74a6.944 6.944 0 0 1 4.658 6.558v48.318C149.778 137.744 100 156.266 100 156.266s-49.778 -18.522 -49.778 -52.092V55.856a6.944 6.944 0 0 1 4.658 -6.558Z" fill="#ffffff" stroke-width="1"></path><path d="m100 33.558 45.12 15.74a6.944 6.944 0 0 1 4.658 6.558v48.318C149.778 137.744 100 156.266 100 156.266s-49.778 -18.522 -49.778 -52.092V55.856a6.944 6.944 0 0 1 4.658 -6.558Z" fill="none" stroke="#020064" stroke-linecap="round" stroke-linejoin="round" stroke-width="1"></path><path d="M66.428 92.598a33.572 33.572 0 1 0 67.144 0 33.572 33.572 0 1 0 -67.144 0Z" fill="#b0d9ff" stroke-width="1"></path><path d="M66.428 92.598a33.572 33.572 0 1 0 67.144 0 33.572 33.572 0 1 0 -67.144 0Z" fill="none" stroke="#020064" stroke-linecap="round" stroke-linejoin="round" stroke-width="1"></path><path d="m84.952 86.81 30.098 0 0 27.782 -30.098 0Z" fill="#ffffff" stroke-width="1"></path><path d="M112.734 81.022a12.734 12.734 0 1 0 -25.468 0v5.788h6.946v-5.788a5.788 5.788 0 1 1 11.576 0v5.788h6.946Z" fill="#ffffff" stroke="#020064" stroke-linecap="round" stroke-linejoin="round" stroke-width="1"></path><path d="m84.952 86.81 30.098 0 0 27.782 -30.098 0Z" fill="none" stroke="#020064" stroke-linecap="round" stroke-linejoin="round" stroke-width="1"></path><path d="M103.474 99.544a3.474 3.474 0 1 0 -5.8 2.57v3.218a2.316 2.316 0 0 0 4.632 0v-3.218a3.444 3.444 0 0 0 1.168 -2.57Z" fill="#b0d9ff" stroke="#020064" stroke-linecap="round" stroke-linejoin="round" stroke-width="1"></path><path d="M72.218 168.77a27.782 3.472 0 1 0 55.564 0 27.782 3.472 0 1 0 -55.564 0Z" fill="#b0d9ff" stroke-width="1"></path></svg>